<?xml version="1.0" encoding="UTF-8" standalone="no"?>
<!-- Created with Inkscape (http://www.inkscape.org/) -->

<svg
   xmlns:dc="http://purl.org/dc/elements/1.1/"
   xmlns:cc="http://creativecommons.org/ns#"
   xmlns:rdf="http://www.w3.org/1999/02/22-rdf-syntax-ns#"
   xmlns:svg="http://www.w3.org/2000/svg"
   xmlns="http://www.w3.org/2000/svg"
   xmlns:sodipodi="http://sodipodi.sourceforge.net/DTD/sodipodi-0.dtd"
   xmlns:inkscape="http://www.inkscape.org/namespaces/inkscape"
   version="1.1"
   width="90mm"
   height="50mm"
   id="svg5530"
   inkscape:version="0.91 r13725"
   sodipodi:docname="logo-ausias-rojo.svg">
  <sodipodi:namedview
     pagecolor="#000000"
     bordercolor="#ffffff"
     borderopacity="1"
     objecttolerance="10"
     gridtolerance="10"
     guidetolerance="10"
     inkscape:pageopacity="0"
     inkscape:pageshadow="2"
     inkscape:window-width="1440"
     inkscape:window-height="821"
     id="namedview89"
     showgrid="false"
     inkscape:zoom="3.6100258"
     inkscape:cx="59.026415"
     inkscape:cy="87.696738"
     inkscape:window-x="0"
     inkscape:window-y="25"
     inkscape:window-maximized="1"
     inkscape:current-layer="svg5530"
     inkscape:showpageshadow="false"
     showborder="false" />
  <defs
     id="defs3" />
  <metadata
     id="metadata5534">
    <rdf:RDF>
      <cc:Work
         rdf:about="">
        <dc:format>image/svg+xml</dc:format>
        <dc:type
           rdf:resource="http://purl.org/dc/dcmitype/StillImage" />
        <dc:title></dc:title>
      </cc:Work>
    </rdf:RDF>
  </metadata>
  <g
     id="g1685"
     transform="matrix(1.4010907,0,0,2.0455515,-133.85991,-103.63645)"
     style="fill:#281315;fill-opacity:1">
    <path
       inkscape:connector-curvature="0"
       d="m 160.381,97.228 -0.673,0.516 c -0.371,-0.483 -0.817,-0.85 -1.337,-1.099 -0.521,-0.249 -1.092,-0.374 -1.714,-0.374 -0.681,0 -1.311,0.164 -1.892,0.49 -0.58,0.327 -1.029,0.766 -1.348,1.316 -0.319,0.552 -0.479,1.171 -0.479,1.859 0,1.041 0.357,1.909 1.07,2.604 0.713,0.695 1.614,1.044 2.7,1.044 1.195,0 2.195,-0.467 2.999,-1.403 l 0.673,0.51 c -0.425,0.542 -0.956,0.96 -1.592,1.256 -0.636,0.295 -1.347,0.444 -2.131,0.444 -1.493,0 -2.67,-0.497 -3.533,-1.491 -0.724,-0.839 -1.085,-1.852 -1.085,-3.04 0,-1.249 0.438,-2.299 1.314,-3.152 0.876,-0.853 1.973,-1.279 3.292,-1.279 0.796,0 1.516,0.157 2.158,0.472 0.642,0.317 1.168,0.758 1.578,1.327 z"
       id="path1687"
       style="fill:#281315;fill-opacity:1" />
    <path
       inkscape:connector-curvature="0"
       d="m 163.405,95.644 4.89,0 0,0.835 -4.038,0 0,2.674 4.002,0 0,0.835 -4.002,0 0,3.353 4.002,0 0,0.835 -4.855,0 0,-8.532 z"
       id="path1689"
       style="fill:#281315;fill-opacity:1" />
    <path
       inkscape:connector-curvature="0"
       d="m 171.081,104.177 0,-8.533 0.186,0 5.678,6.541 0,-6.541 0.842,0 0,8.533 -0.192,0 -5.632,-6.461 0,6.461 -0.882,0 z"
       id="path1691"
       style="fill:#281315;fill-opacity:1" />
    <path
       inkscape:connector-curvature="0"
       d="m 180.323,96.479 0,-0.835 4.675,0 0,0.835 -1.903,0 0,7.697 -0.87,0 0,-7.697 -1.902,0 z"
       id="path1693"
       style="fill:#281315;fill-opacity:1" />
    <path
       inkscape:connector-curvature="0"
       d="m 187.581,95.644 1.699,0 c 0.948,0 1.59,0.039 1.926,0.116 0.506,0.116 0.918,0.365 1.235,0.746 0.317,0.382 0.476,0.851 0.476,1.409 0,0.464 -0.11,0.873 -0.328,1.225 -0.219,0.353 -0.531,0.618 -0.937,0.798 -0.406,0.18 -0.967,0.272 -1.682,0.276 l 3.068,3.962 -1.055,0 -3.068,-3.962 -0.482,0 0,3.962 -0.853,0 0,-8.532 z m 0.853,0.835 0,2.9 1.47,0.012 c 0.569,0 0.99,-0.055 1.263,-0.163 0.273,-0.108 0.486,-0.281 0.64,-0.52 0.153,-0.237 0.229,-0.503 0.229,-0.797 0,-0.286 -0.078,-0.546 -0.233,-0.78 -0.155,-0.234 -0.358,-0.401 -0.61,-0.502 -0.252,-0.101 -0.67,-0.15 -1.255,-0.15 l -1.504,0 z"
       id="path1695"
       style="fill:#281315;fill-opacity:1" />
    <path
       inkscape:connector-curvature="0"
       d="m 196.058,95.644 4.89,0 0,0.835 -4.038,0 0,2.674 4.002,0 0,0.835 -4.002,0 0,3.353 4.002,0 0,0.835 -4.855,0 0,-8.532 z"
       id="path1697"
       style="fill:#281315;fill-opacity:1" />
    <path
       inkscape:connector-curvature="0"
       d="m 208.202,95.644 0.853,0 0,8.533 -0.853,0 0,-8.533 z"
       id="path1699"
       style="fill:#281315;fill-opacity:1" />
    <path
       inkscape:connector-curvature="0"
       d="m 212.322,104.177 0,-8.533 0.186,0 5.679,6.541 0,-6.541 0.841,0 0,8.533 -0.191,0 -5.633,-6.461 0,6.461 -0.882,0 z"
       id="path1701"
       style="fill:#281315;fill-opacity:1" />
    <path
       inkscape:connector-curvature="0"
       d="m 221.563,96.479 0,-0.835 4.675,0 0,0.835 -1.902,0 0,7.697 -0.87,0 0,-7.697 -1.903,0 z"
       id="path1703"
       style="fill:#281315;fill-opacity:1" />
    <path
       inkscape:connector-curvature="0"
       d="m 228.781,95.644 4.891,0 0,0.835 -4.038,0 0,2.674 4.003,0 0,0.835 -4.003,0 0,3.353 4.003,0 0,0.835 -4.855,0 0,-8.532 z"
       id="path1705"
       style="fill:#281315;fill-opacity:1" />
    <path
       inkscape:connector-curvature="0"
       d="m 244.683,97.077 -0.662,0.626 c -0.476,-0.468 -0.995,-0.823 -1.563,-1.064 -0.566,-0.242 -1.119,-0.363 -1.656,-0.363 -0.668,0 -1.307,0.165 -1.911,0.493 -0.604,0.328 -1.075,0.774 -1.407,1.337 -0.331,0.563 -0.498,1.157 -0.498,1.784 0,0.642 0.173,1.252 0.517,1.83 0.344,0.579 0.819,1.032 1.426,1.363 0.607,0.331 1.272,0.496 1.996,0.496 0.877,0 1.62,-0.248 2.228,-0.743 0.607,-0.495 0.967,-1.137 1.079,-1.926 l -2.721,0 0,-0.823 3.677,0 c -0.007,1.319 -0.398,2.366 -1.174,3.141 -0.776,0.775 -1.813,1.163 -3.112,1.163 -1.578,0 -2.826,-0.538 -3.746,-1.612 -0.708,-0.828 -1.063,-1.785 -1.063,-2.872 0,-0.808 0.203,-1.561 0.609,-2.256 0.405,-0.696 0.963,-1.24 1.671,-1.633 0.708,-0.393 1.508,-0.588 2.401,-0.588 0.723,0 1.403,0.13 2.042,0.392 0.637,0.26 1.259,0.678 1.867,1.255 z"
       id="path1707"
       style="fill:#281315;fill-opacity:1" />
    <path
       inkscape:connector-curvature="0"
       d="m 248.164,95.644 1.7,0 c 0.947,0 1.59,0.039 1.926,0.116 0.507,0.116 0.919,0.365 1.235,0.746 0.317,0.382 0.477,0.851 0.477,1.409 0,0.464 -0.11,0.873 -0.328,1.225 -0.218,0.352 -0.531,0.618 -0.938,0.798 -0.405,0.18 -0.967,0.272 -1.683,0.276 l 3.069,3.962 -1.056,0 -3.067,-3.962 -0.482,0 0,3.962 -0.854,0 0,-8.532 z m 0.854,0.835 0,2.9 1.471,0.012 c 0.568,0 0.989,-0.055 1.263,-0.163 0.272,-0.108 0.486,-0.281 0.639,-0.52 0.154,-0.237 0.23,-0.503 0.23,-0.797 0,-0.286 -0.078,-0.546 -0.232,-0.78 -0.156,-0.234 -0.359,-0.401 -0.61,-0.502 -0.252,-0.101 -0.671,-0.15 -1.256,-0.15 l -1.505,0 z"
       id="path1709"
       style="fill:#281315;fill-opacity:1" />
    <path
       inkscape:connector-curvature="0"
       d="m 260.121,95.644 3.979,8.533 -0.921,0 -1.342,-2.808 -3.676,0 -1.329,2.808 -0.952,0 4.032,-8.533 0.209,0 z m -0.106,1.813 -1.463,3.088 2.918,0 -1.455,-3.088 z"
       id="path1711"
       style="fill:#281315;fill-opacity:1" />
    <path
       inkscape:connector-curvature="0"
       d="m 265.884,96.479 0,-0.835 4.675,0 0,0.835 -1.903,0 0,7.697 -0.87,0 0,-7.697 -1.902,0 z"
       id="path1713"
       style="fill:#281315;fill-opacity:1" />
    <path
       inkscape:connector-curvature="0"
       d="m 277.686,95.644 1.699,0 c 0.975,0 1.632,0.042 1.973,0.127 0.487,0.12 0.885,0.367 1.194,0.74 0.31,0.373 0.465,0.842 0.465,1.406 0,0.568 -0.151,1.037 -0.453,1.407 -0.302,0.369 -0.717,0.618 -1.247,0.745 -0.387,0.093 -1.109,0.14 -2.17,0.14 l -0.608,0 0,3.967 -0.853,0 0,-8.532 z m 0.852,0.835 0,2.895 1.443,0.017 c 0.584,0 1.012,-0.053 1.282,-0.159 0.271,-0.106 0.483,-0.278 0.639,-0.515 0.156,-0.237 0.232,-0.502 0.232,-0.796 0,-0.286 -0.077,-0.547 -0.232,-0.785 -0.155,-0.237 -0.358,-0.406 -0.611,-0.506 -0.254,-0.101 -0.669,-0.15 -1.245,-0.15 l -1.508,0 z"
       id="path1715"
       style="fill:#281315;fill-opacity:1" />
    <path
       inkscape:connector-curvature="0"
       d="m 286.057,95.644 0.854,0 0,5.151 c 0,0.611 0.011,0.992 0.033,1.143 0.042,0.337 0.143,0.618 0.296,0.844 0.154,0.227 0.393,0.416 0.715,0.569 0.319,0.152 0.644,0.229 0.968,0.229 0.281,0 0.554,-0.06 0.812,-0.18 0.26,-0.119 0.476,-0.286 0.649,-0.499 0.175,-0.212 0.303,-0.47 0.385,-0.771 0.058,-0.217 0.086,-0.662 0.086,-1.334 l 0,-5.151 0.853,0 0,5.151 c 0,0.762 -0.075,1.378 -0.223,1.848 -0.149,0.47 -0.447,0.879 -0.895,1.227 -0.445,0.348 -0.986,0.522 -1.62,0.522 -0.689,0 -1.279,-0.165 -1.769,-0.493 -0.492,-0.329 -0.82,-0.764 -0.987,-1.305 -0.105,-0.333 -0.157,-0.932 -0.157,-1.798 l 0,-5.153 z m 3.225,-2.459 1.248,0 -1.712,1.787 -0.8,0 1.264,-1.787 z"
       id="path1717"
       style="fill:#281315;fill-opacity:1" />
    <path
       inkscape:connector-curvature="0"
       d="m 295.137,95.644 1.683,0 c 0.676,0 1.196,0.081 1.56,0.241 0.364,0.161 0.651,0.407 0.862,0.74 0.21,0.333 0.315,0.702 0.315,1.108 0,0.379 -0.092,0.724 -0.276,1.035 -0.186,0.312 -0.457,0.564 -0.814,0.757 0.443,0.151 0.785,0.328 1.023,0.531 0.239,0.203 0.426,0.448 0.558,0.737 0.134,0.288 0.2,0.6 0.2,0.937 0,0.684 -0.25,1.263 -0.751,1.737 -0.501,0.474 -1.173,0.71 -2.016,0.71 l -2.344,0 0,-8.533 z m 0.835,0.835 0,2.732 0.488,0 c 0.594,0 1.029,-0.055 1.309,-0.166 0.278,-0.11 0.5,-0.284 0.662,-0.521 0.162,-0.238 0.244,-0.502 0.244,-0.792 0,-0.391 -0.136,-0.697 -0.41,-0.919 -0.272,-0.223 -0.707,-0.333 -1.305,-0.333 l -0.988,0 z m 0,3.591 0,3.271 1.058,0 c 0.624,0 1.081,-0.061 1.372,-0.182 0.29,-0.122 0.523,-0.313 0.699,-0.572 0.177,-0.259 0.265,-0.539 0.265,-0.841 0,-0.379 -0.124,-0.709 -0.372,-0.992 -0.247,-0.282 -0.588,-0.476 -1.022,-0.58 -0.289,-0.069 -0.796,-0.104 -1.517,-0.104 l -0.483,0 z"
       id="path1719"
       style="fill:#281315;fill-opacity:1" />
    <path
       inkscape:connector-curvature="0"
       d="m 303.242,95.644 0.853,0 0,7.709 3.283,0 0,0.824 -4.136,0 0,-8.533 z"
       id="path1721"
       style="fill:#281315;fill-opacity:1" />
    <path
       inkscape:connector-curvature="0"
       d="m 309.914,95.644 0.854,0 0,8.533 -0.854,0 0,-8.533 z"
       id="path1723"
       style="fill:#281315;fill-opacity:1" />
    <path
       inkscape:connector-curvature="0"
       d="m 321.976,97.228 -0.673,0.516 c -0.371,-0.483 -0.816,-0.85 -1.337,-1.099 -0.52,-0.249 -1.092,-0.374 -1.714,-0.374 -0.682,0 -1.312,0.164 -1.892,0.49 -0.58,0.326 -1.029,0.766 -1.348,1.316 -0.32,0.552 -0.479,1.171 -0.479,1.859 0,1.041 0.357,1.909 1.07,2.604 0.713,0.695 1.614,1.044 2.701,1.044 1.194,0 2.193,-0.467 2.998,-1.403 l 0.673,0.51 c -0.426,0.542 -0.956,0.96 -1.592,1.256 -0.636,0.295 -1.348,0.444 -2.132,0.444 -1.493,0 -2.67,-0.497 -3.533,-1.491 -0.723,-0.839 -1.084,-1.852 -1.084,-3.04 0,-1.249 0.438,-2.299 1.313,-3.152 0.876,-0.853 1.974,-1.279 3.292,-1.279 0.796,0 1.516,0.157 2.157,0.472 0.644,0.317 1.169,0.758 1.58,1.327 z"
       id="path1725"
       style="fill:#281315;fill-opacity:1" />
    <path
       inkscape:connector-curvature="0"
       d="m 152.434,119.423 0,-8.533 1.769,0 c 1.276,0 2.202,0.102 2.779,0.307 0.827,0.29 1.474,0.793 1.94,1.508 0.466,0.715 0.699,1.568 0.699,2.558 0,0.854 -0.185,1.607 -0.554,2.256 -0.369,0.65 -0.849,1.129 -1.438,1.439 -0.589,0.309 -1.417,0.464 -2.479,0.464 l -2.716,0 z m 0.818,-0.807 0.986,0 c 1.18,0 1.998,-0.073 2.454,-0.22 0.642,-0.209 1.146,-0.584 1.514,-1.127 0.368,-0.543 0.551,-1.207 0.551,-1.991 0,-0.823 -0.199,-1.526 -0.598,-2.109 -0.399,-0.583 -0.953,-0.983 -1.665,-1.2 -0.534,-0.163 -1.414,-0.244 -2.639,-0.244 l -0.604,0 0,6.891 z"
       id="path1727"
       style="fill:#281315;fill-opacity:1" />
    <path
       inkscape:connector-curvature="0"
       d="m 161.28,110.89 4.89,0 0,0.835 -4.037,0 0,2.674 4.002,0 0,0.835 -4.002,0 0,3.353 4.002,0 0,0.835 -4.855,0 0,-8.532 z"
       id="path1729"
       style="fill:#281315;fill-opacity:1" />
    <path
       inkscape:connector-curvature="0"
       d="m 170.933,110.89 4.275,0 0,0.835 -3.422,0 0,2.674 3.422,0 0,0.835 -3.422,0 0,4.188 -0.853,0 0,-8.532 z"
       id="path1731"
       style="fill:#281315;fill-opacity:1" />
    <path
       inkscape:connector-curvature="0"
       d="m 180.756,110.675 c 1.292,0 2.374,0.431 3.245,1.293 0.871,0.862 1.306,1.924 1.306,3.185 0,1.25 -0.434,2.309 -1.303,3.179 -0.869,0.87 -1.928,1.305 -3.178,1.305 -1.266,0 -2.333,-0.433 -3.204,-1.299 -0.871,-0.866 -1.306,-1.914 -1.306,-3.144 0,-0.819 0.198,-1.579 0.595,-2.28 0.396,-0.7 0.938,-1.248 1.622,-1.644 0.685,-0.396 1.425,-0.595 2.223,-0.595 z m 0.037,0.83 c -0.631,0 -1.23,0.165 -1.795,0.493 -0.565,0.329 -1.007,0.772 -1.325,1.33 -0.317,0.557 -0.476,1.178 -0.476,1.864 0,1.014 0.351,1.87 1.055,2.568 0.703,0.699 1.55,1.048 2.542,1.048 0.663,0 1.275,-0.16 1.839,-0.482 0.564,-0.321 1.003,-0.76 1.319,-1.318 0.315,-0.557 0.473,-1.176 0.473,-1.857 0,-0.677 -0.158,-1.29 -0.473,-1.837 -0.316,-0.547 -0.76,-0.986 -1.334,-1.315 -0.573,-0.33 -1.181,-0.494 -1.825,-0.494 z"
       id="path1733"
       style="fill:#281315;fill-opacity:1" />
    <path
       inkscape:connector-curvature="0"
       d="m 187.064,110.89 1.699,0 c 0.948,0 1.59,0.039 1.926,0.116 0.506,0.117 0.918,0.365 1.235,0.747 0.317,0.382 0.476,0.851 0.476,1.409 0,0.464 -0.109,0.873 -0.328,1.225 -0.218,0.353 -0.531,0.619 -0.937,0.798 -0.406,0.18 -0.967,0.272 -1.683,0.276 l 3.069,3.962 -1.055,0 -3.068,-3.962 -0.482,0 0,3.962 -0.853,0 0,-8.533 z m 0.853,0.835 0,2.9 1.47,0.012 c 0.569,0 0.99,-0.054 1.263,-0.162 0.273,-0.109 0.487,-0.282 0.64,-0.52 0.153,-0.237 0.229,-0.503 0.229,-0.797 0,-0.287 -0.078,-0.546 -0.232,-0.78 -0.155,-0.234 -0.358,-0.401 -0.61,-0.502 -0.252,-0.101 -0.67,-0.151 -1.255,-0.151 l -1.505,0 z"
       id="path1735"
       style="fill:#281315;fill-opacity:1" />
    <path
       inkscape:connector-curvature="0"
       d="m 193.84,119.423 1.221,-8.533 0.138,0 3.469,7.001 3.436,-7.001 0.136,0 1.229,8.533 -0.836,0 -0.843,-6.102 -3.017,6.102 -0.218,0 -3.053,-6.149 -0.838,6.149 -0.824,0 z"
       id="path1737"
       style="fill:#281315;fill-opacity:1" />
    <path
       inkscape:connector-curvature="0"
       d="m 208.631,110.89 3.979,8.533 -0.921,0 -1.342,-2.808 -3.676,0 -1.33,2.808 -0.951,0 4.031,-8.533 0.21,0 z m -0.108,1.813 -1.462,3.088 2.918,0 -1.456,-3.088 z"
       id="path1739"
       style="fill:#281315;fill-opacity:1" />
    <path
       inkscape:connector-curvature="0"
       d="m 221.879,112.474 -0.673,0.516 c -0.371,-0.483 -0.817,-0.85 -1.336,-1.1 -0.521,-0.249 -1.092,-0.374 -1.714,-0.374 -0.681,0 -1.311,0.164 -1.891,0.491 -0.58,0.326 -1.03,0.765 -1.349,1.316 -0.319,0.551 -0.479,1.171 -0.479,1.859 0,1.041 0.357,1.909 1.07,2.605 0.713,0.696 1.614,1.043 2.7,1.043 1.195,0 2.195,-0.467 2.999,-1.403 l 0.673,0.51 c -0.425,0.542 -0.956,0.96 -1.592,1.256 -0.636,0.295 -1.347,0.443 -2.131,0.443 -1.493,0 -2.67,-0.497 -3.533,-1.491 -0.723,-0.839 -1.085,-1.853 -1.085,-3.04 0,-1.249 0.438,-2.3 1.314,-3.153 0.876,-0.853 1.973,-1.279 3.292,-1.279 0.796,0 1.516,0.158 2.158,0.473 0.642,0.317 1.168,0.759 1.577,1.328 z"
       id="path1741"
       style="fill:#281315;fill-opacity:1" />
    <path
       inkscape:connector-curvature="0"
       d="m 223.469,110.89 0.853,0 0,8.533 -0.853,0 0,-8.533 z"
       id="path1743"
       style="fill:#281315;fill-opacity:1" />
    <path
       inkscape:connector-curvature="0"
       d="m 230.341,110.675 c 1.292,0 2.374,0.431 3.243,1.293 0.872,0.862 1.307,1.924 1.307,3.185 0,1.25 -0.435,2.309 -1.302,3.179 -0.87,0.87 -1.929,1.305 -3.179,1.305 -1.265,0 -2.333,-0.433 -3.204,-1.299 -0.871,-0.866 -1.306,-1.914 -1.306,-3.144 0,-0.819 0.198,-1.579 0.595,-2.28 0.396,-0.7 0.937,-1.248 1.622,-1.644 0.685,-0.396 1.426,-0.595 2.224,-0.595 z m 0.037,0.83 c -0.631,0 -1.229,0.165 -1.795,0.493 -0.565,0.329 -1.007,0.772 -1.325,1.33 -0.317,0.557 -0.477,1.178 -0.477,1.864 0,1.014 0.352,1.87 1.055,2.568 0.703,0.699 1.55,1.048 2.542,1.048 0.663,0 1.274,-0.16 1.839,-0.482 0.563,-0.321 1.004,-0.76 1.319,-1.318 0.315,-0.557 0.474,-1.176 0.474,-1.857 0,-0.677 -0.158,-1.29 -0.474,-1.837 -0.316,-0.547 -0.761,-0.986 -1.334,-1.315 -0.573,-0.33 -1.181,-0.494 -1.824,-0.494 z m 0.423,-3.075 1.248,0 -1.712,1.787 -0.8,0 1.264,-1.787 z"
       id="path1745"
       style="fill:#281315;fill-opacity:1" />
    <path
       inkscape:connector-curvature="0"
       d="m 239.886,110.89 1.699,0 c 0.975,0 1.632,0.042 1.972,0.127 0.488,0.12 0.886,0.366 1.195,0.74 0.309,0.373 0.465,0.842 0.465,1.406 0,0.568 -0.152,1.038 -0.454,1.407 -0.301,0.37 -0.716,0.618 -1.246,0.746 -0.388,0.093 -1.109,0.139 -2.169,0.139 l -0.61,0 0,3.968 -0.852,0 0,-8.533 z m 0.851,0.835 0,2.895 1.445,0.017 c 0.583,0 1.011,-0.053 1.281,-0.159 0.271,-0.106 0.483,-0.278 0.639,-0.516 0.154,-0.237 0.232,-0.502 0.232,-0.796 0,-0.285 -0.078,-0.547 -0.232,-0.784 -0.155,-0.238 -0.359,-0.406 -0.611,-0.506 -0.254,-0.101 -0.669,-0.151 -1.245,-0.151 l -1.509,0 z"
       id="path1747"
       style="fill:#281315;fill-opacity:1" />
    <path
       inkscape:connector-curvature="0"
       d="m 246.969,110.89 1.698,0 c 0.948,0 1.59,0.039 1.927,0.116 0.506,0.117 0.918,0.365 1.235,0.747 0.316,0.381 0.476,0.851 0.476,1.409 0,0.464 -0.109,0.873 -0.328,1.225 -0.219,0.353 -0.53,0.619 -0.937,0.798 -0.406,0.18 -0.967,0.272 -1.682,0.276 l 3.067,3.962 -1.054,0 -3.069,-3.962 -0.482,0 0,3.962 -0.852,0 0,-8.533 z m 0.851,0.835 0,2.9 1.47,0.012 c 0.57,0 0.991,-0.054 1.264,-0.162 0.274,-0.109 0.486,-0.282 0.641,-0.52 0.151,-0.237 0.229,-0.503 0.229,-0.797 0,-0.287 -0.077,-0.546 -0.233,-0.78 -0.153,-0.234 -0.357,-0.401 -0.609,-0.502 -0.252,-0.101 -0.67,-0.151 -1.255,-0.151 l -1.507,0 z"
       id="path1749"
       style="fill:#281315;fill-opacity:1" />
    <path
       inkscape:connector-curvature="0"
       d="m 258.195,110.675 c 1.291,0 2.373,0.431 3.244,1.293 0.871,0.862 1.306,1.924 1.306,3.185 0,1.25 -0.435,2.309 -1.303,3.179 -0.869,0.87 -1.928,1.305 -3.178,1.305 -1.266,0 -2.333,-0.433 -3.204,-1.299 -0.871,-0.866 -1.306,-1.914 -1.306,-3.144 0,-0.819 0.197,-1.579 0.595,-2.28 0.396,-0.7 0.938,-1.248 1.621,-1.644 0.687,-0.396 1.426,-0.595 2.225,-0.595 z m 0.037,0.83 c -0.632,0 -1.229,0.165 -1.795,0.493 -0.566,0.329 -1.007,0.772 -1.325,1.33 -0.317,0.557 -0.477,1.178 -0.477,1.864 0,1.014 0.352,1.87 1.056,2.568 0.702,0.699 1.55,1.048 2.541,1.048 0.662,0 1.275,-0.16 1.838,-0.482 0.564,-0.321 1.004,-0.76 1.32,-1.318 0.315,-0.557 0.474,-1.176 0.474,-1.857 0,-0.677 -0.158,-1.29 -0.474,-1.837 -0.316,-0.547 -0.76,-0.986 -1.334,-1.315 -0.573,-0.33 -1.181,-0.494 -1.824,-0.494 z"
       id="path1751"
       style="fill:#281315;fill-opacity:1" />
    <path
       inkscape:connector-curvature="0"
       d="m 264.457,110.89 4.274,0 0,0.835 -3.422,0 0,2.674 3.422,0 0,0.835 -3.422,0 0,4.188 -0.853,0 0,-8.532 z"
       id="path1753"
       style="fill:#281315;fill-opacity:1" />
    <path
       inkscape:connector-curvature="0"
       d="m 270.223,110.89 4.89,0 0,0.835 -4.037,0 0,2.674 4.003,0 0,0.835 -4.003,0 0,3.353 4.003,0 0,0.835 -4.855,0 0,-8.532 z"
       id="path1755"
       style="fill:#281315;fill-opacity:1" />
    <path
       inkscape:connector-curvature="0"
       d="m 275.704,117.833 0.727,-0.435 c 0.51,0.939 1.1,1.409 1.769,1.409 0.286,0 0.555,-0.066 0.806,-0.2 0.251,-0.134 0.443,-0.313 0.575,-0.537 0.131,-0.224 0.196,-0.462 0.196,-0.713 0,-0.286 -0.097,-0.566 -0.291,-0.841 -0.266,-0.379 -0.754,-0.835 -1.461,-1.369 -0.711,-0.538 -1.154,-0.926 -1.328,-1.167 -0.302,-0.402 -0.452,-0.837 -0.452,-1.305 0,-0.372 0.088,-0.71 0.266,-1.016 0.179,-0.305 0.43,-0.546 0.752,-0.722 0.322,-0.176 0.674,-0.264 1.054,-0.264 0.401,0 0.777,0.1 1.127,0.299 0.351,0.199 0.722,0.565 1.111,1.099 l -0.696,0.528 c -0.32,-0.425 -0.594,-0.706 -0.82,-0.841 -0.227,-0.135 -0.474,-0.203 -0.739,-0.203 -0.345,0 -0.626,0.104 -0.844,0.313 -0.22,0.209 -0.328,0.466 -0.328,0.771 0,0.186 0.038,0.366 0.116,0.54 0.077,0.174 0.218,0.363 0.423,0.568 0.112,0.108 0.479,0.393 1.103,0.853 0.738,0.545 1.244,1.03 1.521,1.456 0.273,0.425 0.41,0.853 0.41,1.282 0,0.619 -0.234,1.157 -0.704,1.612 -0.471,0.457 -1.041,0.685 -1.714,0.685 -0.519,0 -0.988,-0.138 -1.41,-0.415 -0.422,-0.277 -0.812,-0.737 -1.169,-1.387 z"
       id="path1757"
       style="fill:#281315;fill-opacity:1" />
    <path
       inkscape:connector-curvature="0"
       d="m 281.621,117.833 0.726,-0.435 c 0.511,0.939 1.1,1.409 1.769,1.409 0.286,0 0.555,-0.066 0.806,-0.2 0.252,-0.134 0.444,-0.313 0.575,-0.537 0.131,-0.224 0.197,-0.462 0.197,-0.713 0,-0.286 -0.097,-0.566 -0.29,-0.841 -0.267,-0.379 -0.754,-0.835 -1.462,-1.369 -0.712,-0.538 -1.154,-0.926 -1.328,-1.167 -0.302,-0.402 -0.453,-0.837 -0.453,-1.305 0,-0.372 0.089,-0.71 0.268,-1.016 0.178,-0.305 0.428,-0.546 0.752,-0.722 0.321,-0.176 0.673,-0.264 1.052,-0.264 0.401,0 0.777,0.1 1.128,0.299 0.35,0.199 0.721,0.565 1.111,1.099 l -0.695,0.528 c -0.322,-0.425 -0.596,-0.706 -0.822,-0.841 -0.227,-0.135 -0.472,-0.203 -0.739,-0.203 -0.345,0 -0.625,0.104 -0.844,0.313 -0.219,0.209 -0.328,0.466 -0.328,0.771 0,0.186 0.039,0.366 0.116,0.54 0.077,0.174 0.219,0.363 0.423,0.568 0.112,0.108 0.48,0.393 1.103,0.853 0.739,0.545 1.245,1.03 1.521,1.456 0.274,0.425 0.411,0.853 0.411,1.282 0,0.619 -0.234,1.157 -0.704,1.612 -0.47,0.457 -1.042,0.685 -1.714,0.685 -0.52,0 -0.988,-0.138 -1.41,-0.415 -0.422,-0.277 -0.812,-0.737 -1.169,-1.387 z"
       id="path1759"
       style="fill:#281315;fill-opacity:1" />
    <path
       inkscape:connector-curvature="0"
       d="m 288.298,110.89 0.853,0 0,8.533 -0.853,0 0,-8.533 z"
       id="path1761"
       style="fill:#281315;fill-opacity:1" />
    <path
       inkscape:connector-curvature="0"
       d="m 295.169,110.675 c 1.292,0 2.373,0.431 3.244,1.293 0.871,0.862 1.306,1.924 1.306,3.185 0,1.25 -0.434,2.309 -1.303,3.179 -0.869,0.87 -1.929,1.305 -3.179,1.305 -1.265,0 -2.332,-0.433 -3.203,-1.299 -0.87,-0.866 -1.306,-1.914 -1.306,-3.144 0,-0.819 0.197,-1.579 0.595,-2.28 0.396,-0.7 0.937,-1.248 1.623,-1.644 0.684,-0.396 1.426,-0.595 2.223,-0.595 z m 0.036,0.83 c -0.631,0 -1.229,0.165 -1.794,0.493 -0.565,0.329 -1.007,0.772 -1.325,1.33 -0.318,0.557 -0.476,1.178 -0.476,1.864 0,1.014 0.351,1.87 1.054,2.568 0.704,0.699 1.551,1.048 2.541,1.048 0.663,0 1.276,-0.16 1.84,-0.482 0.564,-0.321 1.003,-0.76 1.319,-1.318 0.314,-0.557 0.473,-1.176 0.473,-1.857 0,-0.677 -0.158,-1.29 -0.473,-1.837 -0.316,-0.547 -0.761,-0.986 -1.334,-1.315 -0.573,-0.33 -1.18,-0.494 -1.825,-0.494 z"
       id="path1763"
       style="fill:#281315;fill-opacity:1" />
    <path
       inkscape:connector-curvature="0"
       d="m 301.437,119.423 0,-8.533 0.186,0 5.678,6.541 0,-6.541 0.842,0 0,8.533 -0.192,0 -5.632,-6.461 0,6.461 -0.882,0 z"
       id="path1765"
       style="fill:#281315;fill-opacity:1" />
    <path
       inkscape:connector-curvature="0"
       d="m 313.705,110.89 3.979,8.533 -0.922,0 -1.342,-2.808 -3.676,0 -1.33,2.808 -0.95,0 4.031,-8.533 0.21,0 z m -0.108,1.813 -1.462,3.088 2.918,0 -1.456,-3.088 z"
       id="path1767"
       style="fill:#281315;fill-opacity:1" />
    <path
       inkscape:connector-curvature="0"
       d="m 319.006,110.89 0.854,0 0,7.708 3.282,0 0,0.824 -4.137,0 0,-8.532 z"
       id="path1769"
       style="fill:#281315;fill-opacity:1" />
  </g>
  <path
     style="fill:#bd1e2a;fill-opacity:1"
     id="path1773"
     d="m 62.570204,5.1418877 c 0,0 -31.555365,-3.0724184 -48.382464,-4.0951941 C 5.323039,0.50666797 3.6683509,5.1418877 1.9141854,15.891261 1.0987506,20.89468 -2.9924343,109.04977 21.900744,155.11968 c 13.308961,24.63253 20.366255,22.24742 22.439869,20.9894 4.206074,-2.56103 -3.858604,5.62731 -16.129356,-19.45319 C 9.2194723,117.83541 4.3702974,69.124693 6.1216607,26.129246 6.3654505,20.148053 7.9570896,7.7008726 16.289376,7.7008726 c 6.311914,0 39.620043,2.5569394 42.426427,1.5341636 2.802182,-1.0207302 7.008256,-2.0455515 3.854401,-4.0931485 z"
     inkscape:connector-curvature="0" />
  <g
     id="g1775"
     transform="matrix(1.4010907,0,0,2.0455515,-133.85991,-103.63645)"
     style="fill:#bd1e2a;fill-opacity:1">
    <path
       style="fill:#bd1e2a;fill-opacity:1"
       id="path1777"
       d="m 112.202,64.084 c 0.006,0.026 0.011,0.052 0.018,0.078 0,0.211 0,0.423 0,0.635 -0.16,0.181 -0.321,0.362 -0.481,0.543 -0.388,-0.666 -0.775,-1.332 -1.162,-1.998 0.239,-0.213 0.024,-0.027 -0.047,0.014 -0.124,0.073 -0.257,0.135 -0.388,0.2 -0.272,0.136 -0.531,0.283 -0.761,0.487 -0.428,0.382 -0.405,0.884 -0.405,1.396 0,0.651 0.543,1.195 1.194,1.195 0.417,0 0.834,0 1.251,0 0.651,0 1.196,-0.544 1.196,-1.195 0,-0.25 0,-0.501 0,-0.751 0,-0.931 -1.008,-1.455 -1.799,-1.032 -0.533,0.285 -0.967,0.717 -1.501,1.001 -1.227,0.655 -0.367,2.498 0.921,2.185 0.391,-0.096 0.794,-0.139 1.147,-0.351 0.462,-0.278 0.753,-0.78 1.067,-1.2 0.561,-0.749 -0.202,-1.802 -1.031,-1.798 -0.321,10e-4 -0.657,0.03 -0.969,0.111 -0.37,0.098 -0.635,0.324 -0.85,0.635 -0.352,0.507 -0.113,1.12 0.223,1.545 -0.102,-0.176 -0.205,-0.352 -0.308,-0.528 0.288,0.857 0.586,1.827 1.656,1.886 1.005,0.055 1.422,-1.133 1.78,-1.851 0.348,-0.699 0.06,-1.522 -0.713,-1.756 -0.37,-0.111 -0.759,-0.174 -1.143,-0.142 -0.21,0.017 -0.418,0.054 -0.624,0.087 0.257,-0.042 -0.253,0.011 -0.304,0.012 -0.65,0.014 -1.194,0.533 -1.194,1.195 0,0.641 0.543,1.209 1.194,1.195 0.351,-0.007 0.697,-0.06 1.042,-0.114 -0.292,0.046 0.04,0.005 0.089,0.003 0.135,0.008 0.145,0.005 0.028,-0.006 0.092,0.02 0.185,0.044 0.275,0.075 -0.239,-0.585 -0.477,-1.171 -0.715,-1.756 -0.117,0.237 -0.232,0.474 -0.351,0.71 -0.042,0.084 -0.086,0.167 -0.13,0.25 -0.158,0.284 0.09,-0.075 0.009,0.01 1.168,-1.226 1.943,0.755 1.586,0.087 -0.125,-0.233 0.104,0.274 -0.015,-0.038 -0.143,-0.38 -0.243,-0.717 -0.503,-1.045 0.104,0.175 0.206,0.351 0.308,0.527 -0.004,-0.01 -0.006,-0.022 -0.011,-0.032 0,0.212 0,0.423 0,0.636 -0.033,0.077 -0.066,0.153 -0.099,0.23 -0.142,0.143 -0.285,0.286 -0.428,0.429 0.139,-0.106 -0.325,0.102 -0.112,0.046 0.194,-0.051 -0.321,0.026 0.005,-0.001 0.091,-0.007 0.182,-0.01 0.272,-0.011 -0.343,-0.599 -0.688,-1.199 -1.032,-1.798 -0.073,0.097 -0.144,0.194 -0.215,0.29 -0.197,0.262 0.144,-0.178 -0.02,0.025 -0.037,0.046 -0.076,0.088 -0.115,0.13 -0.14,0.145 0.263,-0.176 0.104,-0.081 0.338,-0.204 0.139,-0.061 -0.035,-0.023 -0.169,0.035 -0.338,0.07 -0.507,0.111 0.306,0.728 0.613,1.457 0.92,2.185 0.534,-0.285 0.969,-0.716 1.5,-1.002 -0.599,-0.343 -1.197,-0.687 -1.797,-1.031 0,0.25 0,0.501 0,0.751 0.397,-0.398 0.798,-0.797 1.195,-1.195 -0.417,0 -0.834,0 -1.251,0 0.399,0.398 0.798,0.797 1.196,1.195 0,-0.167 0,-0.334 0,-0.5 -0.117,0.282 -0.234,0.563 -0.349,0.845 -0.242,0.214 -0.026,0.027 0.045,-0.014 0.126,-0.074 0.256,-0.136 0.387,-0.201 0.299,-0.149 0.565,-0.313 0.817,-0.537 0.398,-0.354 0.447,-1.005 0.187,-1.449 -0.297,-0.507 -0.807,-0.623 -1.349,-0.548 -1.025,0.141 -1.576,1.423 -0.965,2.256 0.386,0.524 1.03,0.784 1.635,0.428 0.521,-0.302 0.818,-1.109 0.432,-1.635 l 0,0 z"
       inkscape:connector-curvature="0" />
  </g>
  <g
     id="g1779"
     transform="matrix(1.4010907,0,0,2.0455515,-133.85991,-103.63645)"
     style="fill:#bd1e2a;fill-opacity:1">
    <path
       style="fill:#bd1e2a;fill-opacity:1"
       id="path1781"
       d="m 132.785,65.284 c 0.012,-0.015 0.027,-0.027 0.042,-0.038 -0.177,0.103 -0.351,0.205 -0.527,0.307 10e-4,0 0.005,-10e-4 0.007,-10e-4 -0.491,-0.49 -0.979,-0.98 -1.469,-1.47 0.039,-0.285 0.162,-0.329 0.042,-0.154 -0.067,0.097 -0.139,0.19 -0.208,0.284 0.206,-0.273 -0.074,0.088 -0.12,0.146 -0.066,0.081 -0.134,0.161 -0.208,0.236 -0.836,0.869 -0.004,2.291 1.162,1.998 0.433,-0.108 0.858,-0.219 1.255,-0.434 0.39,-0.21 0.715,-0.565 1.025,-0.874 0.38,-0.379 0.459,-0.985 0.187,-1.449 -0.286,-0.489 -0.817,-0.65 -1.348,-0.548 -0.08,0.016 -0.505,0.074 -0.104,0.024 -0.093,0.011 -0.185,0.018 -0.279,0.025 -0.333,0.027 -0.59,0.07 -0.889,0.219 -0.523,0.262 -0.899,0.856 -1.258,1.29 -0.563,0.677 -0.396,1.737 0.527,1.998 0.639,0.18 1.214,0.061 1.729,-0.349 0.173,-0.138 0.299,-0.33 0.431,-0.507 0.163,-0.218 -0.177,0.207 0.003,-0.004 0.168,-0.199 -0.225,0.123 0.007,-0.011 1.336,-0.767 0.132,-2.833 -1.207,-2.064 -0.334,0.191 -0.553,0.445 -0.776,0.749 -0.201,0.271 0.085,-0.092 -0.043,0.055 -0.093,0.087 -0.067,0.068 0.076,-0.057 0.13,-0.036 0.258,-0.073 0.388,-0.109 0.169,0.034 0.178,0.032 0.026,-0.007 0.176,0.666 0.353,1.332 0.527,1.998 0.201,-0.241 0.398,-0.483 0.602,-0.721 0.058,-0.069 0.119,-0.137 0.182,-0.202 0.204,-0.212 -0.247,0.145 -0.041,0.022 -0.303,0.18 -0.265,0.096 -0.125,0.068 -0.468,0.094 -0.19,0.027 -0.061,0.016 0.308,-0.024 0.615,-0.069 0.918,-0.127 -0.387,-0.666 -0.775,-1.332 -1.163,-1.998 -0.127,0.128 -0.257,0.255 -0.387,0.38 -0.058,0.054 -0.117,0.106 -0.179,0.157 0.259,-0.217 0.099,-0.081 0.025,-0.037 -0.268,0.161 0.238,-0.071 -0.095,0.036 -0.193,0.063 -0.392,0.107 -0.589,0.157 0.388,0.666 0.775,1.332 1.162,1.998 0.24,-0.247 0.444,-0.53 0.653,-0.801 0.161,-0.212 0.417,-0.491 0.456,-0.766 0.128,-0.914 -0.505,-1.674 -1.47,-1.47 -0.223,0.047 -0.416,0.192 -0.578,0.346 -0.47,0.45 -0.452,1.237 0,1.69 0.469,0.466 1.221,0.448 1.692,-10e-4 l 0,0 z"
       inkscape:connector-curvature="0" />
  </g>
  <g
     id="g1783"
     transform="matrix(1.4010907,0,0,2.0455515,-133.85991,-103.63645)"
     style="fill:#bd1e2a;fill-opacity:1">
    <path
       style="fill:#bd1e2a;fill-opacity:1"
       id="path1785"
       d="m 111.576,75.605 c -0.691,0.697 -1.294,1.578 -1.559,2.529 -0.319,1.155 1.151,2.01 1.999,1.162 0.619,-0.62 1.193,-1.266 1.688,-1.993 0.519,-0.766 -0.173,-1.799 -1.033,-1.799 -0.43,0 -0.805,-0.013 -1.199,0.221 -0.39,0.231 -0.592,0.592 -0.76,0.997 -0.029,0.075 -0.037,0.161 -0.048,0.24 -0.045,0.298 -0.164,0.293 0.163,-0.107 -0.41,0.505 -0.496,1.194 0,1.69 0.423,0.425 1.277,0.506 1.689,0 0.201,-0.247 0.356,-0.476 0.43,-0.792 0.018,-0.077 0.022,-0.158 0.035,-0.236 0.055,-0.378 -0.024,0.105 -0.205,0.214 -0.202,0.054 -0.403,0.109 -0.604,0.163 0.166,0 0.333,0 0.499,0 -0.344,-0.599 -0.688,-1.199 -1.031,-1.798 -0.365,0.538 -0.828,1.021 -1.314,1.51 0.666,0.388 1.331,0.775 1.998,1.163 0.031,-0.113 0.065,-0.223 0.108,-0.333 -0.08,0.212 0.083,-0.136 0.085,-0.144 0.11,-0.2 0.239,-0.388 0.374,-0.573 -0.144,0.197 0.15,-0.18 0.204,-0.24 0.055,-0.063 0.111,-0.125 0.171,-0.185 0.458,-0.462 0.462,-1.228 0,-1.69 -0.46,-0.458 -1.233,-0.461 -1.69,0.001 l 0,0 z"
       inkscape:connector-curvature="0" />
  </g>
  <g
     id="g1787"
     transform="matrix(1.4010907,0,0,2.0455515,-133.85991,-103.63645)"
     style="fill:#bd1e2a;fill-opacity:1">
    <path
       style="fill:#bd1e2a;fill-opacity:1"
       id="path1789"
       d="m 130.658,76.848 c -0.464,0.623 -0.862,1.304 -1.123,2.038 -0.364,1.037 0.896,1.824 1.756,1.35 0.724,-0.399 1.181,-1.111 1.744,-1.688 0.709,-0.727 0.218,-2.071 -0.845,-2.041 -0.603,0.017 -1.176,0.188 -1.599,0.639 -0.15,0.161 -0.272,0.352 -0.397,0.533 0.2,-0.291 0.092,-0.117 0.026,-0.049 -0.09,0.082 -0.063,0.062 0.081,-0.06 -0.107,0.059 -0.085,0.051 0.071,-0.02 -0.609,0.229 -1.02,0.798 -0.836,1.47 0.163,0.585 0.86,1.064 1.472,0.835 0.551,-0.208 0.908,-0.5 1.249,-0.97 0.037,-0.049 0.069,-0.1 0.104,-0.149 0.13,-0.189 -0.193,0.224 -0.037,0.056 0.154,-0.166 -0.247,0.154 -0.036,0.039 -0.176,0.07 -0.202,0.086 -0.07,0.049 -0.169,0.019 -0.177,0.025 -0.026,0.017 -0.283,-0.681 -0.563,-1.361 -0.847,-2.041 -0.235,0.243 -0.452,0.503 -0.675,0.759 -0.119,0.14 -0.244,0.274 -0.375,0.403 -0.047,0.047 -0.098,0.092 -0.15,0.136 0.203,-0.177 -0.002,-0.013 -0.057,0.018 0.584,0.45 1.171,0.9 1.755,1.35 0.101,-0.288 -0.114,0.234 0.02,-0.061 0.042,-0.091 0.087,-0.179 0.135,-0.267 0.104,-0.199 0.223,-0.392 0.343,-0.583 0.123,-0.189 0.249,-0.375 0.383,-0.556 0.391,-0.524 0.087,-1.334 -0.428,-1.636 -0.612,-0.357 -1.25,-0.093 -1.638,0.429 l 0,0 z"
       inkscape:connector-curvature="0" />
  </g>
  <g
     id="g1791"
     transform="matrix(1.4010907,0,0,2.0455515,-133.85991,-103.63645)"
     style="fill:#bd1e2a;fill-opacity:1">
    <path
       style="fill:#bd1e2a;fill-opacity:1"
       id="path1793"
       d="m 112.39,89.109 c -0.003,0.003 -0.244,0.334 -0.093,0.141 -0.106,0.136 -0.214,0.271 -0.318,0.409 -0.117,0.153 -0.223,0.305 -0.308,0.48 -0.294,0.617 -0.299,1.232 -0.152,1.892 0.197,0.886 1.389,1.146 1.998,0.528 0.665,-0.677 1.167,-1.456 1.688,-2.244 0.565,-0.854 -0.37,-2.095 -1.349,-1.756 -0.767,0.266 -1.372,0.674 -2.039,1.122 -0.54,0.362 -0.772,1.046 -0.427,1.635 0.312,0.536 1.092,0.792 1.636,0.428 0.277,-0.187 0.549,-0.382 0.832,-0.565 0.115,-0.076 0.237,-0.143 0.361,-0.208 0.123,-0.056 0.131,-0.063 0.026,-0.018 0.083,-0.031 0.165,-0.061 0.247,-0.088 -0.451,-0.586 -0.899,-1.171 -1.349,-1.756 -0.199,0.301 -0.391,0.607 -0.593,0.907 -0.043,0.063 -0.087,0.125 -0.132,0.188 -0.22,0.31 0.145,-0.172 -0.109,0.141 -0.151,0.184 -0.314,0.355 -0.482,0.524 0.667,0.176 1.333,0.352 1.999,0.527 -0.033,-0.161 -0.04,-0.184 -0.02,-0.068 -0.006,-0.073 -0.006,-0.146 0.001,-0.218 -0.021,0.154 -0.015,0.166 0.018,0.036 -0.08,0.267 0.005,0.025 0.046,-0.042 0.037,-0.054 0.073,-0.106 0.112,-0.158 -0.084,0.108 -0.082,0.106 0.005,-0.005 0.16,-0.205 0.321,-0.41 0.468,-0.625 0.371,-0.538 0.104,-1.324 -0.428,-1.635 -0.595,-0.348 -1.269,-0.107 -1.638,0.428 l 0,0 z"
       inkscape:connector-curvature="0" />
  </g>
  <g
     id="g1795"
     transform="matrix(1.4010907,0,0,2.0455515,-133.85991,-103.63645)"
     style="fill:#bd1e2a;fill-opacity:1">
    <path
       style="fill:#bd1e2a;fill-opacity:1"
       id="path1797"
       d="m 131.97,90.816 c 0.047,-0.063 0.24,-0.305 -0.009,0.009 0.089,-0.113 0.211,-0.179 -0.148,0.083 -0.308,0.04 -0.615,0.08 -0.921,0.12 0.001,0 0.001,0 0.003,10e-4 -0.291,-0.384 -0.585,-0.769 -0.878,-1.153 0.082,-0.684 0.231,-0.696 0.056,-0.399 -0.073,0.124 -0.148,0.246 -0.224,0.368 -0.151,0.251 -0.309,0.502 -0.443,0.764 -0.557,1.084 0.554,2.187 1.636,1.635 0.431,-0.22 0.834,-0.483 1.187,-0.819 0.285,-0.272 0.529,-0.588 0.807,-0.869 0.712,-0.721 0.215,-2.076 -0.845,-2.041 -0.435,0.015 -0.855,0.102 -1.225,0.34 -0.153,0.098 -0.29,0.221 -0.431,0.335 0.183,-0.149 0.176,-0.162 0.404,-0.173 -0.651,0.033 -1.195,0.518 -1.195,1.195 0,0.626 0.544,1.229 1.195,1.195 0.498,-0.025 0.854,-0.19 1.24,-0.491 0.032,-0.023 0.061,-0.047 0.091,-0.072 0.178,-0.145 -0.246,0.171 -0.042,0.04 0.106,-0.057 0.076,-0.047 -0.091,0.032 0.253,-0.093 -0.276,0.002 0.054,-0.01 -0.283,-0.68 -0.563,-1.36 -0.847,-2.04 -0.262,0.265 -0.499,0.551 -0.757,0.819 -0.048,0.05 -0.1,0.098 -0.151,0.144 -0.191,0.174 0.231,-0.164 0.006,-10e-4 -0.188,0.137 -0.4,0.247 -0.607,0.352 0.546,0.545 1.091,1.09 1.635,1.635 0.328,-0.64 0.851,-1.207 0.938,-1.939 0.06,-0.498 -0.406,-1.052 -0.877,-1.152 -0.822,-0.175 -1.197,0.319 -1.624,0.885 -0.393,0.522 -0.083,1.335 0.429,1.636 0.611,0.359 1.243,0.091 1.634,-0.429 l 0,0 z"
       inkscape:connector-curvature="0" />
  </g>
  <g
     id="g1799"
     transform="matrix(1.4010907,0,0,2.0455515,-133.85991,-103.63645)"
     style="fill:#bd1e2a;fill-opacity:1">
    <path
       style="fill:#bd1e2a;fill-opacity:1"
       id="path1801"
       d="m 114.422,105.672 c 0.844,-0.103 1.333,-0.672 1.784,-1.344 -0.743,-0.2 -1.485,-0.401 -2.228,-0.602 -0.003,0.094 -0.029,0.256 0.026,-0.155 -0.007,0.057 -0.019,0.115 -0.028,0.173 -0.029,0.162 -0.063,0.324 -0.096,0.486 -0.065,0.326 -0.143,0.664 -0.154,0.996 -0.035,1.042 1.331,1.584 2.04,0.846 0.227,-0.236 0.417,-0.509 0.615,-0.77 0.054,-0.072 0.377,-0.496 0.148,-0.202 0.076,-0.096 0.153,-0.191 0.239,-0.28 0.679,-0.709 0.237,-2.11 -0.847,-2.04 -0.968,0.063 -1.6,0.752 -1.902,1.627 -0.211,0.617 0.238,1.306 0.834,1.47 0.658,0.182 1.26,-0.218 1.471,-0.833 0.007,-0.02 0.015,-0.04 0.023,-0.06 -0.175,0.444 -0.062,0.148 -0.002,0.042 0.148,-0.26 -0.145,0.155 -0.008,0.004 0.089,-0.084 0.054,-0.062 -0.104,0.068 0.018,-0.01 0.037,-0.02 0.052,-0.03 -0.111,0.068 -0.232,0.102 -0.364,0.102 -0.28,-0.68 -0.562,-1.36 -0.845,-2.04 -0.226,0.236 -0.417,0.509 -0.612,0.77 -0.054,0.072 -0.379,0.494 -0.151,0.201 -0.074,0.097 -0.152,0.192 -0.236,0.28 0.678,0.282 1.359,0.563 2.04,0.845 0.002,-0.094 0.03,-0.256 -0.028,0.154 0.009,-0.057 0.02,-0.114 0.03,-0.172 0.028,-0.163 0.063,-0.324 0.095,-0.486 0.066,-0.326 0.144,-0.664 0.154,-0.996 0.019,-0.529 -0.377,-1.016 -0.877,-1.153 -0.542,-0.149 -1.049,0.1 -1.351,0.549 -0.058,0.087 -0.286,0.382 -0.035,0.061 -0.065,0.083 -0.134,0.162 -0.208,0.239 -0.028,0.028 -0.058,0.056 -0.087,0.083 0.052,-0.041 0.104,-0.081 0.157,-0.121 -0.185,0.111 -0.035,0.077 0.454,-0.102 -0.646,0.078 -1.194,0.484 -1.194,1.194 0.002,0.592 0.547,1.274 1.195,1.196 l 0,0 z"
       inkscape:connector-curvature="0" />
  </g>
  <g
     id="g1803"
     transform="matrix(1.4010907,0,0,2.0455515,-133.85991,-103.63645)"
     style="fill:#bd1e2a;fill-opacity:1">
    <path
       style="fill:#bd1e2a;fill-opacity:1"
       id="path1805"
       d="m 131.438,104.976 c 0.251,-1 0.251,0 -0.25,0.751 0.5,-0.501 0.752,-1 1.251,-1.751 -0.25,0.25 -0.75,0.751 -1.001,0.751"
       inkscape:connector-curvature="0" />
    <g
       id="g1807"
       style="fill:#bd1e2a;fill-opacity:1">
      <path
         style="fill:#bd1e2a;fill-opacity:1"
         id="path1809"
         d="m 132.591,105.294 c 0.018,-0.07 0.037,-0.14 0.058,-0.21 0.006,-0.026 0.016,-0.05 0.024,-0.076 -0.047,0.15 -0.127,0.281 -0.24,0.392 -0.481,0.063 -0.966,0.125 -1.449,0.188 0.004,0.001 0.007,0.002 0.008,0.004 -0.183,-0.238 -0.364,-0.477 -0.547,-0.715 -0.082,-0.255 -0.047,-0.221 -0.013,-0.441 -0.012,0.076 -0.032,0.15 -0.052,0.223 -0.026,0.091 -0.06,0.18 -0.095,0.269 0.095,-0.245 -0.102,0.15 -0.129,0.196 -0.733,1.158 0.933,2.414 1.876,1.448 0.578,-0.591 0.986,-1.308 1.44,-1.994 0.293,-0.444 0.176,-1.083 -0.187,-1.448 -0.463,-0.462 -1.23,-0.46 -1.691,0 -0.119,0.118 -0.237,0.234 -0.36,0.348 -0.039,0.036 -0.284,0.232 -0.037,0.044 -0.247,0.187 -0.396,0.082 0.241,0.009 -0.646,0.073 -1.194,0.487 -1.194,1.195 0,0.596 0.546,1.269 1.194,1.194 0.783,-0.089 1.309,-0.563 1.848,-1.101 -0.627,-0.482 -1.251,-0.965 -1.878,-1.448 -0.193,0.292 -0.379,0.59 -0.568,0.884 -0.091,0.14 -0.188,0.276 -0.288,0.41 0.088,-0.112 0.088,-0.115 0,-0.01 -0.065,0.078 -0.137,0.152 -0.208,0.226 0.625,0.482 1.251,0.965 1.876,1.448 0.23,-0.362 0.403,-0.774 0.504,-1.191 0.134,-0.559 0.094,-1.345 -0.532,-1.616 -0.536,-0.23 -0.995,-0.198 -1.449,0.187 -0.271,0.229 -0.371,0.622 -0.457,0.949 -0.164,0.629 0.201,1.296 0.834,1.47 0.624,0.172 1.306,-0.204 1.471,-0.834 l 0,0 z"
         inkscape:connector-curvature="0" />
    </g>
  </g>
  <g
     id="g1811"
     transform="matrix(1.4010907,0,0,2.0455515,-133.85991,-103.63645)"
     style="fill:#bd1e2a;fill-opacity:1">
    <path
       style="fill:#bd1e2a;fill-opacity:1"
       id="path1813"
       d="m 126.087,119.808 c 0.046,-0.145 0.189,-0.436 -0.052,0.078 -0.729,-0.308 -1.457,-0.614 -2.185,-0.921 -0.143,0.501 -0.336,0.999 -0.363,1.526 -0.053,1.045 1.341,1.579 2.041,0.845 0.293,-0.308 0.536,-0.66 0.756,-1.024 0.094,-0.155 0.187,-0.312 0.287,-0.465 0.038,-0.061 0.078,-0.12 0.122,-0.179 -0.145,0.206 0.065,-0.06 0.087,-0.084 0.37,-0.39 0.463,-0.976 0.188,-1.448 -0.299,-0.508 -0.809,-0.624 -1.352,-0.549 -0.354,0.049 -0.667,0.333 -0.914,0.571 -0.094,0.092 -0.185,0.186 -0.28,0.276 -0.035,0.032 -0.069,0.064 -0.106,0.094 0.043,-0.038 0.398,-0.204 0.301,-0.19 -0.646,0.09 -0.991,0.905 -0.834,1.47 0.19,0.69 0.825,0.925 1.469,0.836 0.356,-0.05 0.667,-0.334 0.917,-0.573 0.094,-0.09 0.183,-0.185 0.279,-0.275 0.033,-0.032 0.07,-0.064 0.106,-0.094 -0.044,0.038 -0.4,0.203 -0.3,0.19 -0.39,-0.666 -0.776,-1.332 -1.165,-1.998 -0.293,0.308 -0.535,0.662 -0.756,1.024 -0.094,0.156 -0.187,0.312 -0.286,0.466 -0.039,0.06 -0.079,0.12 -0.12,0.178 0.143,-0.204 -0.067,0.06 -0.09,0.084 0.681,0.282 1.362,0.564 2.041,0.845 0.009,-0.158 -0.059,0.375 -0.022,0.183 0.007,-0.05 0.02,-0.099 0.033,-0.148 0.035,-0.141 0.074,-0.28 0.115,-0.418 0.049,-0.17 0.104,-0.338 0.153,-0.508 0.145,-0.516 -0.091,-1.08 -0.55,-1.35 -0.523,-0.306 -1.357,-0.16 -1.635,0.429 -0.08,0.167 -0.133,0.323 -0.19,0.493 -0.206,0.62 0.232,1.306 0.834,1.472 0.652,0.178 1.265,-0.218 1.471,-0.836 l 0,0 z"
       inkscape:connector-curvature="0" />
  </g>
  <g
     id="g1815"
     transform="matrix(1.4010907,0,0,2.0455515,-133.85991,-103.63645)"
     style="fill:#281315;fill-opacity:1">
    <path
       inkscape:connector-curvature="0"
       d="m 152.703,72.871 c 1.087,-1.123 2.62,-1.854 4.313,-1.854 2.852,0 5.098,1.782 5.811,4.599 l -1.782,0 c -0.66,-1.872 -2.193,-2.817 -4.029,-2.817 -1.194,0 -2.282,0.517 -3.066,1.337 -0.784,0.82 -1.284,1.925 -1.284,3.208 0,1.248 0.5,2.353 1.284,3.172 0.784,0.821 1.872,1.337 3.066,1.337 1.89,0 3.494,-1.087 4.136,-2.977 l 1.765,0 c -0.713,2.834 -2.995,4.759 -5.9,4.759 -1.693,0 -3.226,-0.713 -4.313,-1.854 -1.07,-1.141 -1.783,-2.709 -1.783,-4.438 -0.001,-1.762 0.712,-3.331 1.782,-4.472 z"
       id="path1817"
       style="fill:#281315;fill-opacity:1" />
    <path
       inkscape:connector-curvature="0"
       d="m 169.668,72.871 -2.317,0 0,8.877 2.317,0 0,1.8 -6.435,0 0,-1.8 2.317,0 0,-8.877 -2.317,0 0,-1.783 6.435,0 0,1.783 z"
       id="path1819"
       style="fill:#281315;fill-opacity:1" />
    <path
       inkscape:connector-curvature="0"
       d="m 175.085,71.071 c 2.691,0 4.046,2.085 4.046,4.171 0,2.085 -1.355,4.153 -4.046,4.153 l -2.745,0 0,4.153 -1.818,0 0,-12.477 4.563,0 z m 0,6.541 c 1.515,0 2.264,-1.176 2.264,-2.353 0,-1.194 -0.749,-2.371 -2.264,-2.371 l -2.745,0 0,4.724 2.745,0 z"
       id="path1821"
       style="fill:#281315;fill-opacity:1" />
    <path
       inkscape:connector-curvature="0"
       d="m 181.784,83.548 -1.8,0 0,-12.46 7.434,0 0,1.8 -5.633,0 0,3.512 4.992,0 0,1.818 -4.992,0 0,5.33 z"
       id="path1823"
       style="fill:#281315;fill-opacity:1" />
    <path
       inkscape:connector-curvature="0"
       d="m 192.583,71.071 c 2.691,0 4.046,2.085 4.046,4.171 0,2.085 -1.355,4.153 -4.046,4.153 l -2.745,0 0,4.153 -1.818,0 0,-12.477 4.563,0 z m 0,6.541 c 1.515,0 2.264,-1.176 2.264,-2.353 0,-1.194 -0.749,-2.371 -2.264,-2.371 l -2.745,0 0,4.724 2.745,0 z"
       id="path1825"
       style="fill:#281315;fill-opacity:1" />
    <path
       inkscape:connector-curvature="0"
       d="m 210.582,79.876 -4.474,0 c -0.481,1.141 -1.105,2.638 -1.498,3.672 l -1.942,0 5.009,-12.638 1.319,0 5.009,12.638 -1.925,0 -1.498,-3.672 z m -3.797,-1.693 3.102,0 -1.533,-4.403 -1.569,4.403 z"
       id="path1827"
       style="fill:#281315;fill-opacity:1" />
    <path
       inkscape:connector-curvature="0"
       d="m 214.232,79.805 0,-8.716 1.818,0 0,8.734 c 0,1.373 1.479,2.05 2.799,2.05 1.301,0 2.78,-0.695 2.78,-2.068 l 0,-8.716 1.818,0 0,8.734 c 0,2.531 -2.459,3.851 -4.599,3.851 -2.192,-0.001 -4.616,-1.32 -4.616,-3.869 z"
       id="path1829"
       style="fill:#281315;fill-opacity:1" />
    <path
       inkscape:connector-curvature="0"
       d="m 231.306,74.297 c -0.249,-1.123 -1.462,-1.604 -2.549,-1.586 -0.838,0.018 -1.765,0.303 -2.264,0.945 -0.25,0.321 -0.339,0.731 -0.303,1.158 0.089,1.284 1.498,1.444 2.834,1.569 1.71,0.214 3.832,0.66 4.314,2.656 0.053,0.268 0.088,0.57 0.088,0.82 0,2.407 -2.388,3.797 -4.634,3.797 -1.926,0 -4.261,-1.141 -4.493,-3.369 l -0.018,-0.339 1.818,-0.035 0.018,0.267 0,-0.071 c 0.125,1.159 1.533,1.765 2.692,1.765 1.336,0 2.798,-0.749 2.798,-2.032 0,-0.125 -0.018,-0.268 -0.054,-0.428 -0.214,-0.945 -1.497,-1.105 -2.744,-1.23 -1.943,-0.196 -4.225,-0.624 -4.421,-3.226 l 0,0.018 c -0.071,-0.837 0.143,-1.675 0.678,-2.371 0.837,-1.087 2.334,-1.658 3.778,-1.658 1.925,0 3.922,0.998 4.243,3.28 l -1.781,0.07 z"
       id="path1831"
       style="fill:#281315;fill-opacity:1" />
    <path
       inkscape:connector-curvature="0"
       d="m 240.981,72.871 -2.317,0 0,8.877 2.317,0 0,1.8 -6.436,0 0,-1.8 2.318,0 0,-8.877 -2.318,0 0,-1.783 6.436,0 0,1.783 z"
       id="path1833"
       style="fill:#281315;fill-opacity:1" />
    <path
       inkscape:connector-curvature="0"
       d="m 248.645,79.876 -4.476,0 c -0.48,1.141 -1.104,2.638 -1.497,3.672 l -1.942,0 5.009,-12.638 1.319,0 5.008,12.638 -1.925,0 -1.496,-3.672 z m -3.121,-9.447 -2.015,-1.907 2.425,0 1.284,1.907 -1.694,0 z m -0.677,7.754 3.102,0 -1.532,-4.403 -1.57,4.403 z"
       id="path1835"
       style="fill:#281315;fill-opacity:1" />
    <path
       inkscape:connector-curvature="0"
       d="m 258.873,74.297 c -0.25,-1.123 -1.462,-1.604 -2.55,-1.586 -0.838,0.018 -1.765,0.303 -2.264,0.945 -0.25,0.321 -0.338,0.731 -0.303,1.158 0.089,1.284 1.496,1.444 2.834,1.569 1.711,0.214 3.832,0.66 4.313,2.656 0.054,0.268 0.089,0.57 0.089,0.82 0,2.407 -2.389,3.797 -4.634,3.797 -1.926,0 -4.261,-1.141 -4.492,-3.369 l -0.018,-0.339 1.818,-0.035 0.018,0.267 0,-0.071 c 0.124,1.159 1.533,1.765 2.691,1.765 1.337,0 2.798,-0.749 2.798,-2.032 0,-0.125 -0.017,-0.268 -0.053,-0.428 -0.213,-0.945 -1.497,-1.105 -2.745,-1.23 -1.943,-0.196 -4.226,-0.624 -4.421,-3.226 l 0,0.018 c -0.071,-0.837 0.143,-1.675 0.678,-2.371 0.838,-1.087 2.335,-1.658 3.779,-1.658 1.924,0 3.922,0.998 4.241,3.28 l -1.779,0.07 z"
       id="path1837"
       style="fill:#281315;fill-opacity:1" />
    <path
       inkscape:connector-curvature="0"
       d="m 270.062,83.548 -1.801,0 0,-12.477 1.462,0 4.118,6.061 4.117,-6.061 1.426,0 0,12.478 -1.782,0 0,-8.789 -3.263,4.849 -1.017,0 -3.261,-4.849 0,8.788 z"
       id="path1839"
       style="fill:#281315;fill-opacity:1" />
    <path
       inkscape:connector-curvature="0"
       d="m 287.864,79.876 -4.475,0 c -0.48,1.141 -1.104,2.638 -1.497,3.672 l -1.942,0 5.009,-12.638 1.318,0 5.009,12.638 -1.925,0 -1.497,-3.672 z m -3.797,-1.693 3.102,0 -1.533,-4.403 -1.569,4.403 z"
       id="path1841"
       style="fill:#281315;fill-opacity:1" />
    <path
       inkscape:connector-curvature="0"
       d="m 294.313,77.22 2.104,0 c 1.515,0 2.264,-1.087 2.264,-2.175 0,-1.069 -0.749,-2.157 -2.264,-2.157 l -2.764,0 0,10.66 -1.782,0 0,-12.477 4.546,0 c 2.709,0 4.063,1.996 4.063,3.975 0,1.765 -1.088,3.441 -3.227,3.814 l 3.939,4.688 -2.334,0 -4.546,-5.472 0,-0.856 z"
       id="path1843"
       style="fill:#281315;fill-opacity:1" />
    <path
       inkscape:connector-curvature="0"
       d="m 302.297,72.871 c 1.088,-1.123 2.619,-1.854 4.313,-1.854 2.852,0 5.098,1.782 5.811,4.599 l -1.781,0 c -0.66,-1.872 -2.194,-2.817 -4.029,-2.817 -1.194,0 -2.282,0.517 -3.066,1.337 -0.783,0.82 -1.283,1.925 -1.283,3.208 0,1.248 0.5,2.353 1.283,3.172 0.784,0.821 1.872,1.337 3.066,1.337 1.89,0 3.493,-1.087 4.135,-2.977 l 1.766,0 c -0.714,2.834 -2.995,4.759 -5.9,4.759 -1.694,0 -3.226,-0.713 -4.313,-1.854 -1.07,-1.141 -1.783,-2.709 -1.783,-4.438 -0.002,-1.762 0.711,-3.331 1.781,-4.472 z"
       id="path1845"
       style="fill:#281315;fill-opacity:1" />
    <path
       inkscape:connector-curvature="0"
       d="m 315.18,76.347 5.276,0 0,-5.258 1.817,0 0,12.46 -1.817,0 0,-5.419 -5.276,0 0,5.419 -1.801,0 0,-12.46 1.801,0 0,5.258 z"
       id="path1847"
       style="fill:#281315;fill-opacity:1" />
  </g>
</svg>
